<svg xmlns="http://www.w3.org/2000/svg" width="24" height="24" viewBox="0 0 24 24">
  <path fill="#2e3436" d="m 12,19 a 1,1 0 0 0 -1,1 v 2 a 1,1 0 0 0 1,1 1,1 0 0 0 1,-1 v -2 a 1,1 0 0 0 -1,-1 z" />
  <path fill="#2e3436" d="m 12,1 a 1,1 0 0 0 -1,1 v 2 a 1,1 0 0 0 1,1 1,1 0 0 0 1,-1 V 2 A 1,1 0 0 0 12,1 Z" />
  <path fill="#2e3436" d="m 17,19 a 1,1 0 0 0 -1,1 v 2 a 1,1 0 0 0 1,1 1,1 0 0 0 1,-1 v -2 a 1,1 0 0 0 -1,-1 z" />
  <path fill="#2e3436" d="m 17,1 a 1,1 0 0 0 -1,1 v 2 a 1,1 0 0 0 1,1 1,1 0 0 0 1,-1 V 2 A 1,1 0 0 0 17,1 Z" />
  <path fill="#2e3436" d="m 2,11 a 1,1 0 0 0 -1,1 1,1 0 0 0 1,1 H 4 A 1,1 0 0 0 5,12 1,1 0 0 0 4,11 Z" />
  <path fill="#2e3436" d="m 2,16 a 1,1 0 0 0 -1,1 1,1 0 0 0 1,1 H 4 A 1,1 0 0 0 5,17 1,1 0 0 0 4,16 Z" />
  <path fill="#2e3436" d="M 2,6 A 1,1 0 0 0 1,7 1,1 0 0 0 2,8 H 4 A 1,1 0 0 0 5,7 1,1 0 0 0 4,6 Z" />
  <path fill="#2e3436" d="m 20,11 a 1,1 0 0 0 -1,1 1,1 0 0 0 1,1 h 2 a 1,1 0 0 0 1,-1 1,1 0 0 0 -1,-1 z" />
  <path fill="#2e3436" d="m 20,16 a 1,1 0 0 0 -1,1 1,1 0 0 0 1,1 h 2 a 1,1 0 0 0 1,-1 1,1 0 0 0 -1,-1 z" />
  <path fill="#2e3436" d="m 20,6 a 1,1 0 0 0 -1,1 1,1 0 0 0 1,1 h 2 A 1,1 0 0 0 23,7 1,1 0 0 0 22,6 Z" />
  <path fill="#2e3436" d="m 7,19 a 1,1 0 0 0 -1,1 v 2 a 1,1 0 0 0 1,1 1,1 0 0 0 1,-1 V 20 A 1,1 0 0 0 7,19 Z" />
  <path fill="#2e3436" d="M 7,1 A 1,1 0 0 0 6,2 V 4 A 1,1 0 0 0 7,5 1,1 0 0 0 8,4 V 2 A 1,1 0 0 0 7,1 Z" />
  <path fill="#2e3436" d="M 6,3 C 4.3552972,3 3,4.3552972 3,6 v 12 c 0,1.644703 1.3552972,3 3,3 h 12 c 1.644703,0 3,-1.355297 3,-3 V 6 C 21,4.3552972 19.644703,3 18,3 Z m 0,2 h 12 c 0.571297,0 1,0.4287028 1,1 v 12 c 0,0.571297 -0.428703,1 -1,1 H 6 C 5.4287028,19 5,18.571297 5,18 V 6 C 5,5.4287028 5.4287028,5 6,5 Z" />
  <path fill="#2e3436" d="M 9,7 C 7.9092972,7 7,7.9092972 7,9 v 6 c 0,1.090703 0.9092972,2 2,2 h 6 c 1.090703,0 2,-0.909297 2,-2 V 9 C 17,7.9092972 16.090703,7 15,7 Z m 0,2 h 6 v 6 H 9 Z" />
</svg>
